<svg xmlns="http://www.w3.org/2000/svg" xmlns:xlink="http://www.w3.org/1999/xlink" version="1.1" data-diagram-type="ACTIVITY" style="width:3261px;height:2239px;background:#FFFFFF;" width="3261px" height="2239px" viewBox="0 0 3261 2239" zoomAndPan="magnify" preserveAspectRatio="none" contentStyleType="text/css"><?plantuml 1.2026.7beta11?><defs/><g font-family="sans-serif" lengthAdjust="spacing"><g class="title" data-source-line="43"><text x="1319.797" y="33.564" fill="#000" font-size="20" textLength="620.059" font-weight="700" font-family="Helvetica">AS-IS: Travel-cost reimbursement â one monthly cycle</text><text x="1564.631" y="56.846" fill="#000" font-size="20" textLength="130.391" font-weight="700" font-family="Helvetica">Revision 17</text></g><rect x="15" y="79.6" width="3224.653" height="17.461" fill="#FFF" style="stroke:#FFF;stroke-width:1;"/><rect x="15" y="79.6" width="943.535" height="2144.234" fill="#346280" style="stroke:#346280;stroke-width:1;"/><polygon points="447.858,242.592,596.875,242.592,608.875,254.592,596.875,266.592,447.858,266.592,435.858,254.592,447.858,242.592" fill="#FFF" style="stroke:#3E4E58;stroke-width:1;stroke-linejoin:miter;stroke-miterlimit:10;"/><text x="447.858" y="259.093" fill="#111827" font-size="13" textLength="149.018" font-family="Helvetica">Monthly: Travel mode?</text><text x="399.168" y="251.526" fill="#000" font-size="13" textLength="36.689" font-family="Helvetica">ÃPNV</text><text x="608.875" y="251.526" fill="#000" font-size="13" textLength="29.218" font-family="Helvetica">PKW</text><polygon points="238.647,276.592,318.043,276.592,330.043,288.592,318.043,300.592,238.647,300.592,226.647,288.592,238.647,276.592" fill="#FFF" style="stroke:#3E4E58;stroke-width:1;stroke-linejoin:miter;stroke-miterlimit:10;"/><text x="238.647" y="293.093" fill="#111827" font-size="13" textLength="79.396" font-family="Helvetica">Ticket type?</text><text x="161.926" y="285.526" fill="#000" font-size="13" textLength="64.721" font-family="Helvetica">Abo-Karte</text><text x="330.043" y="285.526" fill="#000" font-size="13" textLength="85.947" font-family="Helvetica">Online-Ticket</text><rect x="21" y="310.592" width="241.07" height="35.133" fill="#FFF" style="stroke:#3E4E58;stroke-width:1;" rx="12.5" ry="12.5"/><text x="31" y="332.659" fill="#111827" font-size="13" textLength="221.07" font-family="Helvetica">Submit bank statement (monthly)</text><rect x="282.07" y="310.592" width="266.171" height="65.398" fill="#FFF" style="stroke:#3E4E58;stroke-width:1;" rx="12.5" ry="12.5"/><ellipse cx="297.57" cy="328.225" rx="2.5" ry="2.5" fill="#111827"/><text x="304.07" y="332.659" fill="#111827" font-size="13" textLength="234.171" font-family="Helvetica">Submit screenshot in app (monthly)</text><ellipse cx="297.57" cy="343.358" rx="2.5" ry="2.5" fill="#111827"/><text x="304.07" y="347.792" fill="#111827" font-size="13" textLength="221.07" font-family="Helvetica">Submit bank statement (monthly)</text><ellipse cx="297.57" cy="358.491" rx="2.5" ry="2.5" fill="#111827"/><text x="304.07" y="362.925" fill="#111827" font-size="13" textLength="183.409" font-family="Helvetica">Submit Rechnung (monthly)</text><polygon points="278.345,381.991,290.345,393.991,278.345,405.991,266.345,393.991,278.345,381.991" fill="#FFF" style="stroke:#3E4E58;stroke-width:1;stroke-linejoin:miter;stroke-miterlimit:10;"/><rect x="578.241" y="276.592" width="376.294" height="35.133" fill="#FFF" style="stroke:#3E4E58;stroke-width:1;" rx="12.5" ry="12.5"/><text x="588.241" y="298.659" fill="#111827" font-size="13" textLength="356.294" font-family="Helvetica">Submit general info (Name of payer &amp; period) monthly</text><polygon points="522.367,411.991,534.367,423.991,522.367,435.991,510.367,423.991,522.367,411.991" fill="#FFF" style="stroke:#3E4E58;stroke-width:1;stroke-linejoin:miter;stroke-miterlimit:10;"/><polygon points="455.999,455.991,588.735,455.991,600.735,467.991,588.735,479.991,455.999,479.991,443.999,467.991,455.999,455.991" fill="#FFF" style="stroke:#3E4E58;stroke-width:1;stroke-linejoin:miter;stroke-miterlimit:10;"/><text x="455.999" y="472.491" fill="#111827" font-size="13" textLength="132.736" font-family="Helvetica">How is it submitted?</text><rect x="277.621" y="520.256" width="183.541" height="35.133" fill="#FFF" style="stroke:#3E4E58;stroke-width:1;" rx="12.5" ry="12.5"/><text x="287.621" y="542.323" fill="#111827" font-size="13" textLength="163.541" font-family="Helvetica">Upload to own Nextcloud</text><rect x="481.162" y="520.256" width="117.494" height="35.133" fill="#FFF" style="stroke:#3E4E58;stroke-width:1;" rx="12.5" ry="12.5"/><text x="491.162" y="542.323" fill="#111827" font-size="13" textLength="97.494" font-family="Helvetica">Send by e-mail</text><rect x="618.655" y="520.256" width="148.458" height="35.133" fill="#FFF" style="stroke:#3E4E58;stroke-width:1;" rx="12.5" ry="12.5"/><text x="628.655" y="542.323" fill="#111827" font-size="13" textLength="128.458" font-family="Helvetica">Handover in-person</text><polygon points="522.367,575.389,522.367,575.389,534.367,587.389,522.367,599.389,522.367,599.389,510.367,587.389,522.367,575.389" fill="#FFF" style="stroke:#3E4E58;stroke-width:1;stroke-linejoin:miter;stroke-miterlimit:10;"/><rect x="386.109" y="1679.709" width="272.516" height="35.133" fill="#FFF" style="stroke:#3E4E58;stroke-width:1;" rx="12.5" ry="12.5"/><text x="396.109" y="1701.776" fill="#111827" font-size="13" textLength="252.516" font-family="Helvetica">Sign the printed form with date on site</text><line x1="15" y1="79.6" x2="15" y2="2223.834" style="stroke:#FFF;stroke-width:2;"/><rect x="958.535" y="79.6" width="445.241" height="2144.234" fill="#408B8B" style="stroke:#408B8B;stroke-width:1;"/><rect x="964.535" y="619.389" width="435.241" height="50.266" fill="#FFF" style="stroke:#3E4E58;stroke-width:1;" rx="12.5" ry="12.5"/><ellipse cx="980.035" cy="637.022" rx="2.5" ry="2.5" fill="#111827"/><text x="986.535" y="641.456" fill="#111827" font-size="13" textLength="403.241" font-family="Helvetica">Mark attendance per session (x, E = present; U = unexcused)</text><ellipse cx="980.035" cy="652.155" rx="2.5" ry="2.5" fill="#111827"/><text x="986.535" y="656.589" fill="#111827" font-size="13" textLength="221.641" font-family="Helvetica">Complete monthly attendance list</text><line x1="958.535" y1="79.6" x2="958.535" y2="2223.834" style="stroke:#FFF;stroke-width:2;"/><rect x="1403.776" y="79.6" width="260.388" height="2144.234" fill="#408B8B" style="stroke:#408B8B;stroke-width:1;"/><rect x="1409.776" y="879.752" width="250.388" height="35.133" fill="#FFF" style="stroke:#3E4E58;stroke-width:1;" rx="12.5" ry="12.5"/><text x="1419.776" y="901.819" fill="#111827" font-size="13" textLength="230.388" font-family="Helvetica">Provide signed internship contracts</text><line x1="1403.776" y1="79.6" x2="1403.776" y2="2223.834" style="stroke:#FFF;stroke-width:2;"/><rect x="1664.165" y="79.6" width="504.668" height="2144.234" fill="#BD6E6E" style="stroke:#BD6E6E;stroke-width:1;"/><ellipse cx="1917.499" cy="112.061" rx="10" ry="10" fill="#FFF" style="stroke:#000;stroke-width:1;"/><rect x="1695.93" y="142.061" width="443.138" height="80.531" fill="#FFF" style="stroke:#3E4E58;stroke-width:1;" rx="12.5" ry="12.5"/><ellipse cx="1711.43" cy="159.694" rx="2.5" ry="2.5" fill="#111827"/><text x="1717.93" y="164.128" fill="#111827" font-size="13" textLength="305.5" font-weight="700" font-family="Helvetica">Initial Requirements (Once at beginning):</text><ellipse cx="1711.43" cy="174.827" rx="2.5" ry="2.5" fill="#111827"/><text x="1717.93" y="179.261" fill="#111827" font-size="13" textLength="131.593" font-family="Helvetica">Collect TN Bank info</text><ellipse cx="1711.43" cy="189.959" rx="2.5" ry="2.5" fill="#111827"/><text x="1717.93" y="194.394" fill="#111827" font-size="13" textLength="122.713" font-family="Helvetica">Collect TN Address</text><ellipse cx="1711.43" cy="205.092" rx="2.5" ry="2.5" fill="#111827"/><text x="1717.93" y="209.526" fill="#111827" font-size="13" textLength="411.138" font-family="Helvetica">Collect TN Travel mode (Abo-Karte photo or PKW-Kennzeichen)</text><rect x="1762.044" y="689.655" width="310.91" height="65.398" fill="#FFF" style="stroke:#3E4E58;stroke-width:1;" rx="12.5" ry="12.5"/><ellipse cx="1777.544" cy="707.288" rx="2.5" ry="2.5" fill="#111827"/><text x="1784.044" y="711.722" fill="#111827" font-size="13" textLength="243.737" font-family="Helvetica">Remind TNs spontaneously (verbally)</text><ellipse cx="1777.544" cy="722.42" rx="2.5" ry="2.5" fill="#111827"/><text x="1784.044" y="726.854" fill="#111827" font-size="13" textLength="278.91" font-family="Helvetica">Identify PKW cases from memory / request</text><ellipse cx="1777.544" cy="737.553" rx="2.5" ry="2.5" fill="#111827"/><text x="1784.044" y="741.987" fill="#111827" font-size="13" textLength="164.22" font-family="Helvetica">Check course yearly plan</text><rect x="1806.339" y="824.62" width="222.319" height="35.133" fill="#FFF" style="stroke:#3E4E58;stroke-width:1;" rx="12.5" ry="12.5"/><text x="1816.339" y="846.687" fill="#111827" font-size="13" textLength="202.319" font-family="Helvetica">Request internship information</text><rect x="1762.616" y="934.885" width="309.764" height="35.133" fill="#FFF" style="stroke:#3E4E58;stroke-width:1;" rx="12.5" ry="12.5"/><text x="1772.616" y="956.952" fill="#111827" font-size="13" textLength="289.764" font-family="Helvetica">Collect Distance proof (Google Maps &gt; 3km)</text><polygon points="1859.554,775.053,1975.443,775.053,1987.443,787.053,1975.443,799.053,1859.554,799.053,1847.554,787.053,1859.554,775.053" fill="#FFF" style="stroke:#3E4E58;stroke-width:1;stroke-linejoin:miter;stroke-miterlimit:10;"/><text x="1921.499" y="811.12" fill="#000" font-size="13" textLength="22.464" font-family="Helvetica">yes</text><text x="1859.554" y="791.554" fill="#111827" font-size="13" textLength="115.889" font-family="Helvetica">Internship phase?</text><text x="1987.443" y="783.987" fill="#000" font-size="13" textLength="16.193" font-family="Helvetica">no</text><polygon points="1917.499,990.018,1929.499,1002.018,1917.499,1014.018,1905.499,1002.018,1917.499,990.018" fill="#FFF" style="stroke:#3E4E58;stroke-width:1;stroke-linejoin:miter;stroke-miterlimit:10;"/><rect x="1813.356" y="1034.018" width="208.284" height="35.133" fill="#FFF" style="stroke:#3E4E58;stroke-width:1;" rx="12.5" ry="12.5"/><text x="1823.356" y="1056.085" fill="#111827" font-size="13" textLength="188.284" font-family="Helvetica">Log all data in tracking Excel</text><rect x="1765.222" y="1089.151" width="304.553" height="35.133" fill="#FFF" style="stroke:#3E4E58;stroke-width:1;" rx="12.5" ry="12.5"/><text x="1775.222" y="1111.218" fill="#111827" font-size="13" textLength="284.553" font-family="Helvetica">Check proofs against ticket type &amp; legibility</text><rect x="1743.832" y="1193.85" width="347.333" height="50.266" fill="#FFF" style="stroke:#3E4E58;stroke-width:1;" rx="12.5" ry="12.5"/><ellipse cx="1759.332" cy="1211.483" rx="2.5" ry="2.5" fill="#111827"/><text x="1765.832" y="1215.917" fill="#111827" font-size="13" textLength="181.765" font-family="Helvetica">Add "missing" label in Excel</text><ellipse cx="1759.332" cy="1226.616" rx="2.5" ry="2.5" fill="#111827"/><text x="1765.832" y="1231.05" fill="#111827" font-size="13" textLength="315.333" font-family="Helvetica">Rename TN's cloud folder to signal missing docs</text><polygon points="1835.753,1144.284,1999.244,1144.284,2011.244,1156.284,1999.244,1168.284,1835.753,1168.284,1823.753,1156.284,1835.753,1144.284" fill="#FFF" style="stroke:#3E4E58;stroke-width:1;stroke-linejoin:miter;stroke-miterlimit:10;"/><text x="1921.499" y="1180.351" fill="#000" font-size="13" textLength="16.193" font-family="Helvetica">no</text><text x="1835.753" y="1160.784" fill="#111827" font-size="13" textLength="163.49" font-family="Helvetica">Complete and matching?</text><text x="2011.244" y="1153.218" fill="#000" font-size="13" textLength="22.464" font-family="Helvetica">yes</text><polygon points="1917.499,1270.814,1929.499,1282.814,1917.499,1294.814,1905.499,1282.814,1917.499,1270.814" fill="#FFF" style="stroke:#3E4E58;stroke-width:1;stroke-linejoin:miter;stroke-miterlimit:10;"/><text x="1923.499" y="1267.749" fill="#000" font-size="13" textLength="69.875" font-family="Helvetica">back to TN</text><rect x="1786.109" y="1314.814" width="262.779" height="35.133" fill="#FFF" style="stroke:#3E4E58;stroke-width:1;" rx="12.5" ry="12.5"/><text x="1796.109" y="1336.881" fill="#111827" font-size="13" textLength="242.779" font-family="Helvetica">Calculate presence days from the list</text><rect x="1772.594" y="1419.514" width="289.81" height="50.266" fill="#FFF" style="stroke:#3E4E58;stroke-width:1;" rx="12.5" ry="12.5"/><ellipse cx="1788.094" cy="1437.146" rx="2.5" ry="2.5" fill="#111827"/><text x="1794.594" y="1441.581" fill="#111827" font-size="13" textLength="210.533" font-family="Helvetica">Look up VMT single-ticket prices</text><ellipse cx="1788.094" cy="1452.279" rx="2.5" ry="2.5" fill="#111827"/><text x="1794.594" y="1456.713" fill="#111827" font-size="13" textLength="257.81" font-family="Helvetica">Calculate both options, choose cheaper</text><polygon points="1840.34,1369.947,1994.657,1369.947,2006.657,1381.947,1994.657,1393.947,1840.34,1393.947,1828.34,1381.947,1840.34,1369.947" fill="#FFF" style="stroke:#3E4E58;stroke-width:1;stroke-linejoin:miter;stroke-miterlimit:10;"/><text x="1921.499" y="1406.014" fill="#000" font-size="13" textLength="22.464" font-family="Helvetica">yes</text><text x="1840.34" y="1386.448" fill="#111827" font-size="13" textLength="154.318" font-family="Helvetica">Attendance &lt; 2 weeks?</text><text x="2006.657" y="1378.881" fill="#000" font-size="13" textLength="16.193" font-family="Helvetica">no</text><polygon points="1917.499,1489.779,1929.499,1501.779,1917.499,1513.779,1905.499,1501.779,1917.499,1489.779" fill="#FFF" style="stroke:#3E4E58;stroke-width:1;stroke-linejoin:miter;stroke-miterlimit:10;"/><rect x="1670.165" y="1533.779" width="494.668" height="125.93" fill="#FFF" style="stroke:#3E4E58;stroke-width:1;" rx="12.5" ry="12.5"/><ellipse cx="1685.665" cy="1551.412" rx="2.5" ry="2.5" fill="#111827"/><text x="1692.165" y="1555.846" fill="#111827" font-size="13" textLength="342.996" font-family="Helvetica">Default to Deutschlandticket unless other is cheaper</text><ellipse cx="1685.665" cy="1566.545" rx="2.5" ry="2.5" fill="#111827"/><text x="1692.165" y="1570.979" fill="#111827" font-size="13" textLength="360.788" font-family="Helvetica">Calculate amount (ticket Ã· workdays Ã presence days)</text><ellipse cx="1685.665" cy="1581.678" rx="2.5" ry="2.5" fill="#111827"/><text x="1692.165" y="1586.112" fill="#111827" font-size="13" textLength="189.75" font-family="Helvetica">Print pre-prepared base form</text><ellipse cx="1685.665" cy="1596.811" rx="2.5" ry="2.5" fill="#111827"/><text x="1692.165" y="1601.245" fill="#111827" font-size="13" textLength="283.436" font-family="Helvetica">Write monthly data by pen (amount, dates)</text><ellipse cx="1685.665" cy="1611.943" rx="2.5" ry="2.5" fill="#111827"/><text x="1692.165" y="1616.377" fill="#111827" font-size="13" textLength="250.218" font-family="Helvetica">Write "Erstattungsbetrag: [amount] â¬"</text><ellipse cx="1685.665" cy="1627.076" rx="2.5" ry="2.5" fill="#111827"/><text x="1692.165" y="1631.51" fill="#111827" font-size="13" textLength="462.668" font-family="Helvetica">Write "Der/Die TN hat keine unentschuldigten Fehltage." (if applicable)</text><ellipse cx="1685.665" cy="1642.209" rx="2.5" ry="2.5" fill="#111827"/><text x="1692.165" y="1646.643" fill="#111827" font-size="13" textLength="369.707" font-family="Helvetica">Print all the proofs together and attach them to the form</text><rect x="1773.874" y="1975.904" width="287.249" height="35.133" fill="#FFF" style="stroke:#3E4E58;stroke-width:1;" rx="12.5" ry="12.5"/><text x="1783.874" y="1997.971" fill="#111827" font-size="13" textLength="267.249" font-family="Helvetica">Ask Approvers for the latest payment list</text><rect x="1819.255" y="2116.436" width="196.487" height="65.398" fill="#FFF" style="stroke:#3E4E58;stroke-width:1;" rx="12.5" ry="12.5"/><ellipse cx="1834.755" cy="2134.068" rx="2.5" ry="2.5" fill="#111827"/><text x="1841.255" y="2138.502" fill="#111827" font-size="13" textLength="100.229" font-family="Helvetica">Wait for the list</text><ellipse cx="1834.755" cy="2149.201" rx="2.5" ry="2.5" fill="#111827"/><text x="1841.255" y="2153.635" fill="#111827" font-size="13" textLength="164.487" font-family="Helvetica">Check names one by one</text><ellipse cx="1834.755" cy="2164.334" rx="2.5" ry="2.5" fill="#111827"/><text x="1841.255" y="2168.768" fill="#111827" font-size="13" textLength="161.853" font-family="Helvetica">Mark as paid in Excel file</text><ellipse cx="1917.499" cy="2212.834" rx="11" ry="11" fill="none" style="stroke:#000;stroke-width:1;"/><ellipse cx="1917.499" cy="2212.834" rx="6" ry="6" fill="#FFF" style="stroke:#000;stroke-width:1;"/><line x1="1664.165" y1="79.6" x2="1664.165" y2="2223.834" style="stroke:#FFF;stroke-width:2;"/><rect x="2168.833" y="79.6" width="430.205" height="2144.234" fill="#738928" style="stroke:#738928;stroke-width:1;"/><rect x="2258.603" y="1734.842" width="252.664" height="80.531" fill="#FFF" style="stroke:#3E4E58;stroke-width:1;" rx="12.5" ry="12.5"/><ellipse cx="2274.103" cy="1752.475" rx="2.5" ry="2.5" fill="#111827"/><text x="2280.603" y="1756.909" fill="#111827" font-size="13" textLength="203.271" font-family="Helvetica">Approval by Manager/Approver</text><ellipse cx="2274.103" cy="1767.607" rx="2.5" ry="2.5" fill="#111827"/><text x="2280.603" y="1772.042" fill="#111827" font-size="13" textLength="220.664" font-family="Helvetica">Final check by Thorsten or Florian</text><ellipse cx="2274.103" cy="1782.74" rx="2.5" ry="2.5" fill="#111827"/><text x="2280.603" y="1787.174" fill="#111827" font-size="13" textLength="147.761" font-family="Helvetica">Scan the whole packet</text><ellipse cx="2274.103" cy="1797.873" rx="2.5" ry="2.5" fill="#111827"/><text x="2280.603" y="1802.307" fill="#111827" font-size="13" textLength="165.947" font-family="Helvetica">E-mail scans to Secretary</text><rect x="2247.327" y="2031.037" width="275.217" height="65.398" fill="#FFF" style="stroke:#3E4E58;stroke-width:1;" rx="12.5" ry="12.5"/><ellipse cx="2262.827" cy="2048.67" rx="2.5" ry="2.5" fill="#111827"/><text x="2269.327" y="2053.104" fill="#111827" font-size="13" textLength="127.347" font-family="Helvetica">Access finance files</text><ellipse cx="2262.827" cy="2063.803" rx="2.5" ry="2.5" fill="#111827"/><text x="2269.327" y="2068.237" fill="#111827" font-size="13" textLength="243.217" font-family="Helvetica">Filter relevant payments &amp; create list</text><ellipse cx="2262.827" cy="2078.936" rx="2.5" ry="2.5" fill="#111827"/><text x="2269.327" y="2083.37" fill="#111827" font-size="13" textLength="169.565" font-family="Helvetica">Send filtered list to Admin</text><line x1="2168.833" y1="79.6" x2="2168.833" y2="2223.834" style="stroke:#FFF;stroke-width:2;"/><rect x="2599.038" y="79.6" width="269.497" height="2144.234" fill="#647B26" style="stroke:#647B26;stroke-width:1;"/><rect x="2605.038" y="1835.373" width="259.497" height="35.133" fill="#FFF" style="stroke:#3E4E58;stroke-width:1;" rx="12.5" ry="12.5"/><text x="2615.038" y="1857.44" fill="#111827" font-size="13" textLength="239.497" font-family="Helvetica">Forward documents into eDoc (DMS)</text><line x1="2599.038" y1="79.6" x2="2599.038" y2="2223.834" style="stroke:#FFF;stroke-width:2;"/><rect x="2868.535" y="79.6" width="369.507" height="2144.234" fill="#546D24" style="stroke:#546D24;stroke-width:1;"/><rect x="2874.535" y="1890.506" width="359.507" height="65.398" fill="#FFF" style="stroke:#3E4E58;stroke-width:1;" rx="12.5" ry="12.5"/><ellipse cx="2890.035" cy="1908.139" rx="2.5" ry="2.5" fill="#111827"/><text x="2896.535" y="1912.573" fill="#111827" font-size="13" textLength="327.507" font-family="Helvetica">Owns legal decisions (digital signature, paperless)</text><ellipse cx="2890.035" cy="1923.271" rx="2.5" ry="2.5" fill="#111827"/><text x="2896.535" y="1927.706" fill="#111827" font-size="13" textLength="111.871" font-family="Helvetica">Process payment</text><ellipse cx="2890.035" cy="1938.404" rx="2.5" ry="2.5" fill="#111827"/><text x="2896.535" y="1942.838" fill="#111827" font-size="13" textLength="172.72" font-family="Helvetica">Payment appears in "EKN"</text><line x1="2868.535" y1="79.6" x2="2868.535" y2="2223.834" style="stroke:#FFF;stroke-width:2;"/><line x1="3238.042" y1="79.6" x2="3238.042" y2="2223.834" style="stroke:#FFF;stroke-width:2;"/><line x1="226.647" y1="288.592" x2="141.535" y2="288.592" style="stroke:#3E4E58;stroke-width:1;"/><line x1="141.535" y1="288.592" x2="141.535" y2="310.592" style="stroke:#3E4E58;stroke-width:1;"/><polygon points="137.535,300.592,141.535,310.592,145.535,300.592,141.535,304.592" fill="#3E4E58" style="stroke:#3E4E58;stroke-width:1;stroke-linejoin:miter;stroke-miterlimit:10;"/><line x1="330.043" y1="288.592" x2="415.156" y2="288.592" style="stroke:#3E4E58;stroke-width:1;"/><line x1="415.156" y1="288.592" x2="415.156" y2="310.592" style="stroke:#3E4E58;stroke-width:1;"/><polygon points="411.156,300.592,415.156,310.592,419.156,300.592,415.156,304.592" fill="#3E4E58" style="stroke:#3E4E58;stroke-width:1;stroke-linejoin:miter;stroke-miterlimit:10;"/><line x1="141.535" y1="345.725" x2="141.535" y2="393.991" style="stroke:#3E4E58;stroke-width:1;"/><line x1="141.535" y1="393.991" x2="266.345" y2="393.991" style="stroke:#3E4E58;stroke-width:1;"/><polygon points="256.345,389.991,266.345,393.991,256.345,397.991,260.345,393.991" fill="#3E4E58" style="stroke:#3E4E58;stroke-width:1;stroke-linejoin:miter;stroke-miterlimit:10;"/><line x1="415.156" y1="375.991" x2="415.156" y2="393.991" style="stroke:#3E4E58;stroke-width:1;"/><line x1="415.156" y1="393.991" x2="290.345" y2="393.991" style="stroke:#3E4E58;stroke-width:1;"/><polygon points="300.345,389.991,290.345,393.991,300.345,397.991,296.345,393.991" fill="#3E4E58" style="stroke:#3E4E58;stroke-width:1;stroke-linejoin:miter;stroke-miterlimit:10;"/><line x1="435.858" y1="254.592" x2="278.345" y2="254.592" style="stroke:#3E4E58;stroke-width:1;"/><line x1="278.345" y1="254.592" x2="278.345" y2="276.592" style="stroke:#3E4E58;stroke-width:1;"/><polygon points="274.345,266.592,278.345,276.592,282.345,266.592,278.345,270.592" fill="#3E4E58" style="stroke:#3E4E58;stroke-width:1;stroke-linejoin:miter;stroke-miterlimit:10;"/><line x1="608.875" y1="254.592" x2="766.388" y2="254.592" style="stroke:#3E4E58;stroke-width:1;"/><line x1="766.388" y1="254.592" x2="766.388" y2="276.592" style="stroke:#3E4E58;stroke-width:1;"/><polygon points="762.388,266.592,766.388,276.592,770.388,266.592,766.388,270.592" fill="#3E4E58" style="stroke:#3E4E58;stroke-width:1;stroke-linejoin:miter;stroke-miterlimit:10;"/><line x1="278.345" y1="405.991" x2="278.345" y2="423.991" style="stroke:#3E4E58;stroke-width:1;"/><line x1="278.345" y1="423.991" x2="510.367" y2="423.991" style="stroke:#3E4E58;stroke-width:1;"/><polygon points="500.367,419.991,510.367,423.991,500.367,427.991,504.367,423.991" fill="#3E4E58" style="stroke:#3E4E58;stroke-width:1;stroke-linejoin:miter;stroke-miterlimit:10;"/><line x1="766.388" y1="311.725" x2="766.388" y2="423.991" style="stroke:#3E4E58;stroke-width:1;"/><line x1="766.388" y1="423.991" x2="534.367" y2="423.991" style="stroke:#3E4E58;stroke-width:1;"/><polygon points="544.367,419.991,534.367,423.991,544.367,427.991,540.367,423.991" fill="#3E4E58" style="stroke:#3E4E58;stroke-width:1;stroke-linejoin:miter;stroke-miterlimit:10;"/><line x1="443.999" y1="467.991" x2="369.391" y2="467.991" style="stroke:#3E4E58;stroke-width:1;"/><line x1="369.391" y1="467.991" x2="369.391" y2="520.256" style="stroke:#3E4E58;stroke-width:1;"/><polygon points="365.391,510.256,369.391,520.256,373.391,510.256,369.391,514.256" fill="#3E4E58" style="stroke:#3E4E58;stroke-width:1;stroke-linejoin:miter;stroke-miterlimit:10;"/><text x="369.391" y="498.624" fill="#000" font-size="13" textLength="37.134" font-family="Helvetica">Cloud</text><line x1="600.735" y1="467.991" x2="692.884" y2="467.991" style="stroke:#3E4E58;stroke-width:1;"/><line x1="692.884" y1="467.991" x2="692.884" y2="520.256" style="stroke:#3E4E58;stroke-width:1;"/><polygon points="688.884,510.256,692.884,520.256,696.884,510.256,692.884,514.256" fill="#3E4E58" style="stroke:#3E4E58;stroke-width:1;stroke-linejoin:miter;stroke-miterlimit:10;"/><text x="692.884" y="498.624" fill="#000" font-size="13" textLength="37.4" font-family="Helvetica">Paper</text><line x1="522.367" y1="479.991" x2="522.367" y2="493.413" style="stroke:#3E4E58;stroke-width:1;"/><line x1="522.367" y1="493.413" x2="539.908" y2="493.413" style="stroke:#3E4E58;stroke-width:1;"/><line x1="539.908" y1="493.413" x2="539.908" y2="520.256" style="stroke:#3E4E58;stroke-width:1;"/><polygon points="535.908,510.256,539.908,520.256,543.908,510.256,539.908,514.256" fill="#3E4E58" style="stroke:#3E4E58;stroke-width:1;stroke-linejoin:miter;stroke-miterlimit:10;"/><text x="522.367" y="499.624" fill="#000" font-size="13" textLength="40.758" font-family="Helvetica">E-mail</text><line x1="369.391" y1="555.389" x2="369.391" y2="587.389" style="stroke:#3E4E58;stroke-width:1;"/><line x1="369.391" y1="587.389" x2="510.367" y2="587.389" style="stroke:#3E4E58;stroke-width:1;"/><polygon points="500.367,583.389,510.367,587.389,500.367,591.389,504.367,587.389" fill="#3E4E58" style="stroke:#3E4E58;stroke-width:1;stroke-linejoin:miter;stroke-miterlimit:10;"/><line x1="692.884" y1="555.389" x2="692.884" y2="587.389" style="stroke:#3E4E58;stroke-width:1;"/><line x1="692.884" y1="587.389" x2="534.367" y2="587.389" style="stroke:#3E4E58;stroke-width:1;"/><polygon points="544.367,583.389,534.367,587.389,544.367,591.389,540.367,587.389" fill="#3E4E58" style="stroke:#3E4E58;stroke-width:1;stroke-linejoin:miter;stroke-miterlimit:10;"/><line x1="539.908" y1="555.389" x2="539.908" y2="560.389" style="stroke:#3E4E58;stroke-width:1;"/><line x1="539.908" y1="560.389" x2="522.367" y2="560.389" style="stroke:#3E4E58;stroke-width:1;"/><line x1="522.367" y1="560.389" x2="522.367" y2="575.389" style="stroke:#3E4E58;stroke-width:1;"/><polygon points="518.367,565.389,522.367,575.389,526.367,565.389,522.367,569.389" fill="#3E4E58" style="stroke:#3E4E58;stroke-width:1;stroke-linejoin:miter;stroke-miterlimit:10;"/><line x1="522.367" y1="435.991" x2="522.367" y2="455.991" style="stroke:#3E4E58;stroke-width:1;"/><polygon points="518.367,445.991,522.367,455.991,526.367,445.991,522.367,449.991" fill="#3E4E58" style="stroke:#3E4E58;stroke-width:1;stroke-linejoin:miter;stroke-miterlimit:10;"/><line x1="1917.499" y1="122.061" x2="1917.499" y2="142.061" style="stroke:#3E4E58;stroke-width:1;"/><polygon points="1913.499,132.061,1917.499,142.061,1921.499,132.061,1917.499,136.061" fill="#3E4E58" style="stroke:#3E4E58;stroke-width:1;stroke-linejoin:miter;stroke-miterlimit:10;"/><line x1="1917.499" y1="799.053" x2="1917.499" y2="824.62" style="stroke:#3E4E58;stroke-width:1;"/><polygon points="1913.499,814.62,1917.499,824.62,1921.499,814.62,1917.499,818.62" fill="#3E4E58" style="stroke:#3E4E58;stroke-width:1;stroke-linejoin:miter;stroke-miterlimit:10;"/><line x1="1987.443" y1="787.053" x2="2082.381" y2="787.053" style="stroke:#3E4E58;stroke-width:1;"/><polygon points="2078.381,887.319,2082.381,897.319,2086.381,887.319,2082.381,891.319" fill="#3E4E58" style="stroke:#3E4E58;stroke-width:1;stroke-linejoin:miter;stroke-miterlimit:10;"/><line x1="2082.381" y1="787.053" x2="2082.381" y2="1002.018" style="stroke:#3E4E58;stroke-width:1;"/><line x1="2082.381" y1="1002.018" x2="1929.499" y2="1002.018" style="stroke:#3E4E58;stroke-width:1;"/><polygon points="1939.499,998.018,1929.499,1002.018,1939.499,1006.018,1935.499,1002.018" fill="#3E4E58" style="stroke:#3E4E58;stroke-width:1;stroke-linejoin:miter;stroke-miterlimit:10;"/><line x1="1917.499" y1="970.018" x2="1917.499" y2="990.018" style="stroke:#3E4E58;stroke-width:1;"/><polygon points="1913.499,980.018,1917.499,990.018,1921.499,980.018,1917.499,984.018" fill="#3E4E58" style="stroke:#3E4E58;stroke-width:1;stroke-linejoin:miter;stroke-miterlimit:10;"/><line x1="1917.499" y1="755.053" x2="1917.499" y2="775.053" style="stroke:#3E4E58;stroke-width:1;"/><polygon points="1913.499,765.053,1917.499,775.053,1921.499,765.053,1917.499,769.053" fill="#3E4E58" style="stroke:#3E4E58;stroke-width:1;stroke-linejoin:miter;stroke-miterlimit:10;"/><line x1="1917.499" y1="1014.018" x2="1917.499" y2="1034.018" style="stroke:#3E4E58;stroke-width:1;"/><polygon points="1913.499,1024.018,1917.499,1034.018,1921.499,1024.018,1917.499,1028.018" fill="#3E4E58" style="stroke:#3E4E58;stroke-width:1;stroke-linejoin:miter;stroke-miterlimit:10;"/><line x1="1917.499" y1="1069.151" x2="1917.499" y2="1089.151" style="stroke:#3E4E58;stroke-width:1;"/><polygon points="1913.499,1079.151,1917.499,1089.151,1921.499,1079.151,1917.499,1083.151" fill="#3E4E58" style="stroke:#3E4E58;stroke-width:1;stroke-linejoin:miter;stroke-miterlimit:10;"/><line x1="1917.499" y1="1168.284" x2="1917.499" y2="1193.85" style="stroke:#3E4E58;stroke-width:1;"/><polygon points="1913.499,1183.85,1917.499,1193.85,1921.499,1183.85,1917.499,1187.85" fill="#3E4E58" style="stroke:#3E4E58;stroke-width:1;stroke-linejoin:miter;stroke-miterlimit:10;"/><line x1="2011.244" y1="1156.284" x2="2101.165" y2="1156.284" style="stroke:#3E4E58;stroke-width:1;"/><polygon points="2097.165,1216.549,2101.165,1226.549,2105.165,1216.549,2101.165,1220.549" fill="#3E4E58" style="stroke:#3E4E58;stroke-width:1;stroke-linejoin:miter;stroke-miterlimit:10;"/><line x1="2101.165" y1="1156.284" x2="2101.165" y2="1282.814" style="stroke:#3E4E58;stroke-width:1;"/><line x1="2101.165" y1="1282.814" x2="1929.499" y2="1282.814" style="stroke:#3E4E58;stroke-width:1;"/><polygon points="1939.499,1278.814,1929.499,1282.814,1939.499,1286.814,1935.499,1282.814" fill="#3E4E58" style="stroke:#3E4E58;stroke-width:1;stroke-linejoin:miter;stroke-miterlimit:10;"/><line x1="1917.499" y1="1244.116" x2="1917.499" y2="1270.814" style="stroke:#3E4E58;stroke-width:1;"/><polygon points="1913.499,1260.814,1917.499,1270.814,1921.499,1260.814,1917.499,1264.814" fill="#3E4E58" style="stroke:#3E4E58;stroke-width:1;stroke-linejoin:miter;stroke-miterlimit:10;"/><line x1="1917.499" y1="1124.284" x2="1917.499" y2="1144.284" style="stroke:#3E4E58;stroke-width:1;"/><polygon points="1913.499,1134.284,1917.499,1144.284,1921.499,1134.284,1917.499,1138.284" fill="#3E4E58" style="stroke:#3E4E58;stroke-width:1;stroke-linejoin:miter;stroke-miterlimit:10;"/><line x1="1917.499" y1="1294.814" x2="1917.499" y2="1314.814" style="stroke:#3E4E58;stroke-width:1;"/><polygon points="1913.499,1304.814,1917.499,1314.814,1921.499,1304.814,1917.499,1308.814" fill="#3E4E58" style="stroke:#3E4E58;stroke-width:1;stroke-linejoin:miter;stroke-miterlimit:10;"/><line x1="1917.499" y1="1393.947" x2="1917.499" y2="1419.514" style="stroke:#3E4E58;stroke-width:1;"/><polygon points="1913.499,1409.514,1917.499,1419.514,1921.499,1409.514,1917.499,1413.514" fill="#3E4E58" style="stroke:#3E4E58;stroke-width:1;stroke-linejoin:miter;stroke-miterlimit:10;"/><line x1="2006.657" y1="1381.947" x2="2072.404" y2="1381.947" style="stroke:#3E4E58;stroke-width:1;"/><polygon points="2068.404,1434.646,2072.404,1444.646,2076.404,1434.646,2072.404,1438.646" fill="#3E4E58" style="stroke:#3E4E58;stroke-width:1;stroke-linejoin:miter;stroke-miterlimit:10;"/><line x1="2072.404" y1="1381.947" x2="2072.404" y2="1501.779" style="stroke:#3E4E58;stroke-width:1;"/><line x1="2072.404" y1="1501.779" x2="1929.499" y2="1501.779" style="stroke:#3E4E58;stroke-width:1;"/><polygon points="1939.499,1497.779,1929.499,1501.779,1939.499,1505.779,1935.499,1501.779" fill="#3E4E58" style="stroke:#3E4E58;stroke-width:1;stroke-linejoin:miter;stroke-miterlimit:10;"/><line x1="1917.499" y1="1469.779" x2="1917.499" y2="1489.779" style="stroke:#3E4E58;stroke-width:1;"/><polygon points="1913.499,1479.779,1917.499,1489.779,1921.499,1479.779,1917.499,1483.779" fill="#3E4E58" style="stroke:#3E4E58;stroke-width:1;stroke-linejoin:miter;stroke-miterlimit:10;"/><line x1="1917.499" y1="1349.947" x2="1917.499" y2="1369.947" style="stroke:#3E4E58;stroke-width:1;"/><polygon points="1913.499,1359.947,1917.499,1369.947,1921.499,1359.947,1917.499,1363.947" fill="#3E4E58" style="stroke:#3E4E58;stroke-width:1;stroke-linejoin:miter;stroke-miterlimit:10;"/><line x1="1917.499" y1="1513.779" x2="1917.499" y2="1533.779" style="stroke:#3E4E58;stroke-width:1;"/><polygon points="1913.499,1523.779,1917.499,1533.779,1921.499,1523.779,1917.499,1527.779" fill="#3E4E58" style="stroke:#3E4E58;stroke-width:1;stroke-linejoin:miter;stroke-miterlimit:10;"/><line x1="1917.499" y1="2181.834" x2="1917.499" y2="2201.834" style="stroke:#3E4E58;stroke-width:1;"/><polygon points="1913.499,2191.834,1917.499,2201.834,1921.499,2191.834,1917.499,2195.834" fill="#3E4E58" style="stroke:#3E4E58;stroke-width:1;stroke-linejoin:miter;stroke-miterlimit:10;"/><line x1="1917.499" y1="222.592" x2="1917.499" y2="227.592" style="stroke:#3E4E58;stroke-width:1;"/><line x1="1917.499" y1="227.592" x2="522.367" y2="227.592" style="stroke:#3E4E58;stroke-width:1;"/><line x1="522.367" y1="227.592" x2="522.367" y2="242.592" style="stroke:#3E4E58;stroke-width:1;"/><polygon points="518.367,232.592,522.367,242.592,526.367,232.592,522.367,236.592" fill="#3E4E58" style="stroke:#3E4E58;stroke-width:1;stroke-linejoin:miter;stroke-miterlimit:10;"/><line x1="522.367" y1="599.389" x2="522.367" y2="604.389" style="stroke:#3E4E58;stroke-width:1;"/><line x1="522.367" y1="604.389" x2="1182.156" y2="604.389" style="stroke:#3E4E58;stroke-width:1;"/><line x1="1182.156" y1="604.389" x2="1182.156" y2="619.389" style="stroke:#3E4E58;stroke-width:1;"/><polygon points="1178.156,609.389,1182.156,619.389,1186.156,609.389,1182.156,613.389" fill="#3E4E58" style="stroke:#3E4E58;stroke-width:1;stroke-linejoin:miter;stroke-miterlimit:10;"/><line x1="1182.156" y1="669.655" x2="1182.156" y2="674.655" style="stroke:#3E4E58;stroke-width:1;"/><line x1="1182.156" y1="674.655" x2="1917.499" y2="674.655" style="stroke:#3E4E58;stroke-width:1;"/><line x1="1917.499" y1="674.655" x2="1917.499" y2="689.655" style="stroke:#3E4E58;stroke-width:1;"/><polygon points="1913.499,679.655,1917.499,689.655,1921.499,679.655,1917.499,683.655" fill="#3E4E58" style="stroke:#3E4E58;stroke-width:1;stroke-linejoin:miter;stroke-miterlimit:10;"/><line x1="1917.499" y1="859.752" x2="1917.499" y2="864.752" style="stroke:#3E4E58;stroke-width:1;"/><line x1="1917.499" y1="864.752" x2="1534.97" y2="864.752" style="stroke:#3E4E58;stroke-width:1;"/><line x1="1534.97" y1="864.752" x2="1534.97" y2="879.752" style="stroke:#3E4E58;stroke-width:1;"/><polygon points="1530.97,869.752,1534.97,879.752,1538.97,869.752,1534.97,873.752" fill="#3E4E58" style="stroke:#3E4E58;stroke-width:1;stroke-linejoin:miter;stroke-miterlimit:10;"/><line x1="1534.97" y1="914.885" x2="1534.97" y2="919.885" style="stroke:#3E4E58;stroke-width:1;"/><line x1="1534.97" y1="919.885" x2="1917.499" y2="919.885" style="stroke:#3E4E58;stroke-width:1;"/><line x1="1917.499" y1="919.885" x2="1917.499" y2="934.885" style="stroke:#3E4E58;stroke-width:1;"/><polygon points="1913.499,924.885,1917.499,934.885,1921.499,924.885,1917.499,928.885" fill="#3E4E58" style="stroke:#3E4E58;stroke-width:1;stroke-linejoin:miter;stroke-miterlimit:10;"/><line x1="1917.499" y1="1659.709" x2="1917.499" y2="1664.709" style="stroke:#3E4E58;stroke-width:1;"/><line x1="1917.499" y1="1664.709" x2="522.367" y2="1664.709" style="stroke:#3E4E58;stroke-width:1;"/><line x1="522.367" y1="1664.709" x2="522.367" y2="1679.709" style="stroke:#3E4E58;stroke-width:1;"/><polygon points="518.367,1669.709,522.367,1679.709,526.367,1669.709,522.367,1673.709" fill="#3E4E58" style="stroke:#3E4E58;stroke-width:1;stroke-linejoin:miter;stroke-miterlimit:10;"/><line x1="522.367" y1="1714.842" x2="522.367" y2="1719.842" style="stroke:#3E4E58;stroke-width:1;"/><line x1="522.367" y1="1719.842" x2="2384.935" y2="1719.842" style="stroke:#3E4E58;stroke-width:1;"/><line x1="2384.935" y1="1719.842" x2="2384.935" y2="1734.842" style="stroke:#3E4E58;stroke-width:1;"/><polygon points="2380.935,1724.842,2384.935,1734.842,2388.935,1724.842,2384.935,1728.842" fill="#3E4E58" style="stroke:#3E4E58;stroke-width:1;stroke-linejoin:miter;stroke-miterlimit:10;"/><line x1="2384.935" y1="1815.373" x2="2384.935" y2="1820.373" style="stroke:#3E4E58;stroke-width:1;"/><line x1="2384.935" y1="1820.373" x2="2734.786" y2="1820.373" style="stroke:#3E4E58;stroke-width:1;"/><line x1="2734.786" y1="1820.373" x2="2734.786" y2="1835.373" style="stroke:#3E4E58;stroke-width:1;"/><polygon points="2730.786,1825.373,2734.786,1835.373,2738.786,1825.373,2734.786,1829.373" fill="#3E4E58" style="stroke:#3E4E58;stroke-width:1;stroke-linejoin:miter;stroke-miterlimit:10;"/><line x1="2734.786" y1="1870.506" x2="2734.786" y2="1875.506" style="stroke:#3E4E58;stroke-width:1;"/><line x1="2734.786" y1="1875.506" x2="3054.288" y2="1875.506" style="stroke:#3E4E58;stroke-width:1;"/><line x1="3054.288" y1="1875.506" x2="3054.288" y2="1890.506" style="stroke:#3E4E58;stroke-width:1;"/><polygon points="3050.288,1880.506,3054.288,1890.506,3058.288,1880.506,3054.288,1884.506" fill="#3E4E58" style="stroke:#3E4E58;stroke-width:1;stroke-linejoin:miter;stroke-miterlimit:10;"/><line x1="3054.288" y1="1955.904" x2="3054.288" y2="1960.904" style="stroke:#3E4E58;stroke-width:1;"/><line x1="3054.288" y1="1960.904" x2="1917.499" y2="1960.904" style="stroke:#3E4E58;stroke-width:1;"/><line x1="1917.499" y1="1960.904" x2="1917.499" y2="1975.904" style="stroke:#3E4E58;stroke-width:1;"/><polygon points="1913.499,1965.904,1917.499,1975.904,1921.499,1965.904,1917.499,1969.904" fill="#3E4E58" style="stroke:#3E4E58;stroke-width:1;stroke-linejoin:miter;stroke-miterlimit:10;"/><line x1="1917.499" y1="2011.037" x2="1917.499" y2="2016.037" style="stroke:#3E4E58;stroke-width:1;"/><line x1="1917.499" y1="2016.037" x2="2384.935" y2="2016.037" style="stroke:#3E4E58;stroke-width:1;"/><line x1="2384.935" y1="2016.037" x2="2384.935" y2="2031.037" style="stroke:#3E4E58;stroke-width:1;"/><polygon points="2380.935,2021.037,2384.935,2031.037,2388.935,2021.037,2384.935,2025.037" fill="#3E4E58" style="stroke:#3E4E58;stroke-width:1;stroke-linejoin:miter;stroke-miterlimit:10;"/><line x1="2384.935" y1="2096.436" x2="2384.935" y2="2101.436" style="stroke:#3E4E58;stroke-width:1;"/><line x1="2384.935" y1="2101.436" x2="1917.499" y2="2101.436" style="stroke:#3E4E58;stroke-width:1;"/><line x1="1917.499" y1="2101.436" x2="1917.499" y2="2116.436" style="stroke:#3E4E58;stroke-width:1;"/><polygon points="1913.499,2106.436,1917.499,2116.436,1921.499,2106.436,1917.499,2110.436" fill="#3E4E58" style="stroke:#3E4E58;stroke-width:1;stroke-linejoin:miter;stroke-miterlimit:10;"/><text x="419.125" y="93.523" fill="#FFF" font-size="15" textLength="135.286" font-weight="700" font-family="Helvetica">TN (Participant)</text><text x="1151.401" y="93.523" fill="#FFF" font-size="15" textLength="59.509" font-weight="700" font-family="Helvetica">Dozent</text><text x="1461.109" y="93.523" fill="#FFF" font-size="15" textLength="145.723" font-weight="700" font-family="Helvetica">Internship coord.</text><text x="1867.232" y="93.523" fill="#FFF" font-size="15" textLength="98.533" font-weight="700" font-family="Helvetica">Admin (me)</text><text x="2173.833" y="93.523" fill="#FFF" font-size="15" textLength="420.205" font-weight="700" font-family="Helvetica">Approvers (Manager/Approver, Thorsten, Florian)</text><text x="2692.833" y="93.523" fill="#FFF" font-size="15" textLength="81.907" font-weight="700" font-family="Helvetica">Secretary</text><text x="2964.969" y="93.523" fill="#FFF" font-size="15" textLength="176.638" font-weight="700" font-family="Helvetica">Accounting / Finance</text></g></svg>
